<?xml version="1.0" encoding="iso-8859-1"?>
<!-- Generator: Adobe Illustrator 19.0.0, SVG Export Plug-In . SVG Version: 6.00 Build 0)  -->
<svg version="1.1" id="Capa_1" xmlns="http://www.w3.org/2000/svg" xmlns:xlink="http://www.w3.org/1999/xlink" x="0px" y="0px"
	 viewBox="0 0 512 512" style="enable-background:new 0 0 512 512;" xml:space="preserve">
<circle style="fill:#C8EC4B;" cx="256" cy="256" r="256"/>
<path style="fill:#A8D32A;" d="M512,256c0-7.742-0.364-15.398-1.037-22.965l-89.905-89.905l-14.904,17.649L327.375,82l-122.75,8.429
	L94.228,372.324l138.623,138.623C240.478,511.631,248.195,512,256,512C397.385,512,512,397.385,512,256z"/>
<path style="fill:#DE1F4B;" d="M327.375,178.5h-142.75V82h142.75V178.5z M204.625,158.5h102.75V102h-102.75V158.5z"/>
<polygon style="fill:#B70E38;" points="327.375,82 255.952,82 255.952,102 307.375,102 307.375,158.5 255.952,158.5 255.952,178.5 
	327.375,178.5 "/>
<path style="fill:#FFFFFF;" d="M382.527,386.489H129.473c-28.156,0-50.981-22.825-50.981-50.981V176.491
	c0-28.156,22.825-50.981,50.981-50.981h253.054c28.156,0,50.981,22.825,50.981,50.981v159.017
	C433.508,363.665,410.683,386.489,382.527,386.489z"/>
<path style="fill:#E0E0E0;" d="M382.527,125.511H255.952V386.49h126.575c28.156,0,50.981-22.825,50.981-50.98V176.491
	C433.508,148.335,410.683,125.511,382.527,125.511z"/>
<path style="fill:#FF2E60;" d="M433.508,176.491c0-28.156-22.825-50.981-50.981-50.981H129.473
	c-28.156,0-50.981,22.825-50.981,50.981v71.056h355.016V176.491z"/>
<path style="fill:#DE1F4B;" d="M433.508,176.491c0-28.156-22.825-50.98-50.981-50.98H255.952v122.037h177.555v-71.057H433.508z"/>
<polygon style="fill:#FFFFFF;" points="293.439,177.34 269.747,177.34 269.747,153.648 242.253,153.648 242.253,177.34 
	218.561,177.34 218.561,204.834 242.253,204.834 242.253,228.526 269.747,228.526 269.747,204.834 293.439,204.834 "/>
<polygon style="fill:#E0E0E0;" points="269.747,177.34 269.747,153.648 255.952,153.648 255.952,228.526 269.747,228.526 
	269.747,204.834 293.439,204.834 293.439,177.34 "/>
<rect x="120.76" y="219.55" style="fill:#DE1F4B;" width="51.24" height="54.943"/>
<rect x="340" y="219.55" style="fill:#B70E38;" width="51.24" height="54.943"/>
<g>
</g>
<g>
</g>
<g>
</g>
<g>
</g>
<g>
</g>
<g>
</g>
<g>
</g>
<g>
</g>
<g>
</g>
<g>
</g>
<g>
</g>
<g>
</g>
<g>
</g>
<g>
</g>
<g>
</g>
</svg>
