<svg height="511pt" viewBox="0 -36 511.99995 511" width="511pt" xmlns="http://www.w3.org/2000/svg"><path d="m342.742188 127.855469c-17.855469-.5-36.085938 5.367187-51.046876 19.199219-15.027343 13.894531-23.714843 33.746093-23.71875 54.210937 0 17.882813 7.117188 41.414063 24.882813 49.507813 12.113281 5.515624 18.605469-3.667969 28.539063-8.171876 12.148437-5.511718 23.578124-4.730468 36.457031-.222656 10.882812 3.804688 21.929687 13.808594 33.820312 8.398438 17.773438-8.085938 24.894531-31.625 24.894531-49.511719-.007812-42.847656-36.082031-72.355469-73.828124-73.410156zm0 0" fill="#d97f4a"/><path d="m416.570312 201.265625c0 17.886719-7.121093 41.425781-24.898437 49.507813-6.203125 2.820312-12.183594 1.449218-18.027344-1.0625 16.238281-8.921876 22.789063-31.289063 22.777344-48.445313 0-39.789063-31.117187-68.078125-65.789063-72.75 4.019532-.5625 8.074219-.769531 12.105469-.660156 37.75 1.058593 73.820313 30.570312 73.832031 73.410156zm0 0" fill="#ca6d36"/><g fill="#d97f4a"><path d="m384.136719 49.867188c0 23.121093-18.742188 41.867187-41.863281 41.867187-23.121094 0-41.867188-18.746094-41.867188-41.867187 0-23.121094 18.746094-41.863282 41.867188-41.863282 23.121093 0 41.863281 18.742188 41.863281 41.863282zm0 0"/><path d="m470.222656 94.316406c0 18.503906-15.003906 33.507813-33.511718 33.507813-18.507813 0-33.511719-15.003907-33.511719-33.507813 0-18.507812 15.003906-33.511718 33.511719-33.511718 18.507812 0 33.511718 15.003906 33.511718 33.511718zm0 0"/><path d="m281.34375 94.316406c0 18.503906-15 33.507813-33.507812 33.507813-18.507813 0-33.511719-15.003907-33.511719-33.507813 0-18.507812 15.003906-33.511718 33.511719-33.511718 18.507812 0 33.507812 15.003906 33.507812 33.511718zm0 0"/></g><path d="m384.140625 49.871094c0 23.117187-18.746094 41.863281-41.863281 41.863281-8.914063 0-17.175782-2.792969-23.96875-7.535156 1.941406.28125 3.929687.421875 5.960937.421875 23.117188 0 41.863281-18.746094 41.863281-41.863282 0-14.203124-7.082031-26.757812-17.894531-34.332031 20.296875 2.890625 35.902344 20.347657 35.902344 41.445313zm0 0" fill="#ca6d36"/><path d="m470.226562 94.3125c0 18.507812-15.003906 33.511719-33.511718 33.511719-7.851563 0-15.082032-2.699219-20.796875-7.230469.921875.078125 1.851562.117188 2.792969.117188 18.503906 0 33.511718-15.003907 33.511718-33.507813 0-10.65625-4.972656-20.148437-12.714844-26.28125 17.195313 1.410156 30.71875 15.828125 30.71875 33.390625zm0 0" fill="#ca6d36"/><path d="m281.347656 94.3125c0 18.507812-15.003906 33.511719-33.511718 33.511719-7.851563 0-15.085938-2.699219-20.796876-7.230469.921876.078125 1.851563.117188 2.792969.117188 18.503907 0 33.507813-15.003907 33.507813-33.507813 0-10.65625-4.96875-20.148437-12.710938-26.28125 17.195313 1.410156 30.71875 15.828125 30.71875 33.390625zm0 0" fill="#ca6d36"/><path d="m115.363281 418.542969h-101.921875c-3.277344 0-5.9375-2.65625-5.9375-5.9375v-157.09375c0-3.277344 2.65625-5.9375 5.9375-5.9375h101.921875c3.28125 0 5.941407 2.660156 5.941407 5.9375v157.09375c0 3.277343-2.660157 5.9375-5.941407 5.9375zm0 0" fill="#f38dc5"/><path d="m115.363281 418.542969h-101.921875c-3.277344 0-5.9375-2.65625-5.9375-5.9375v-37.871094h113.800782v37.871094c0 3.277343-2.660157 5.9375-5.941407 5.9375zm0 0" fill="#ee74b8"/><path d="m161.582031 270.375h45.203125c6.785156 0 13.53125 1.035156 20.003906 3.0625l120.570313 37.808594c11.859375 3.71875 24.640625 3.238281 36.191406-1.355469l78.527344-31.242187c12.410156-4.9375 26.585937-1.359376 35.164063 8.878906 10.175781 12.144531 9.539062 29.996094-1.46875 41.390625-25.832032 26.742187-75.875 72.433593-134.574219 94.6875-16.882813 6.398437-35 8.84375-52.988281 7.316406-38.136719-3.238281-112.71875-12.667969-146.628907-38.332031zm0 0" fill="#fed2a4"/><path d="m504.476562 307.410156c0 7.777344-2.921874 15.539063-8.699218 21.511719-25.832032 26.738281-75.875 72.4375-134.578125 94.691406-16.882813 6.386719-35.003907 8.839844-52.980469 7.308594-38.148438-3.226563-112.730469-12.667969-146.636719-38.324219v-26.578125c33.90625 25.675781 108.488281 35.097657 146.636719 38.339844 17.976562 1.519531 36.097656-.917969 52.980469-7.324219 58.703125-22.253906 108.746093-67.9375 134.578125-94.675781 2.40625-2.484375 4.308594-5.261719 5.699218-8.230469 2 4.195313 3 8.746094 3 13.28125zm0 0" fill="#ffbd86"/><path d="m155.898438 404.796875h-34.59375v-141.476563h34.59375c3.140624 0 5.683593 2.542969 5.683593 5.683594v130.109375c0 3.140625-2.542969 5.683594-5.683593 5.683594zm0 0" fill="#f9efef"/><path d="m155.898438 404.796875h-34.59375v-42.050781h40.277343v36.367187c0 3.140625-2.542969 5.683594-5.683593 5.683594zm0 0" fill="#efe2dd"/><path d="m502.992188 282.710938c-10.679688-12.746094-28.234376-17.179688-43.6875-11.03125l-78.527344 31.238281c-9.914063 3.945312-20.980469 4.359375-31.164063 1.171875l-120.582031-37.808594c-7.207031-2.261719-14.691406-3.40625-22.246094-3.40625h-39.21875c-2.210937-4.191406-6.609375-7.058594-11.667968-7.058594h-27.089844v-.304687c0-7.410157-6.03125-13.441407-13.445313-13.441407h-101.921875c-7.410156 0-13.441406 6.03125-13.441406 13.441407v157.09375c0 7.410156 6.03125 13.441406 13.441406 13.441406h9.308594c4.144531 0 7.5-3.359375 7.5-7.503906s-3.355469-7.5-7.5-7.5h-7.746094v-153.96875h98.796875v153.96875h-56.207031c-4.144531 0-7.5 3.355469-7.5 7.5s3.355469 7.503906 7.5 7.503906h57.773438c7.410156 0 13.441406-6.03125 13.441406-13.441406v-.304688h27.089844c5.007812 0 9.371093-2.804687 11.601562-6.921875 37.792969 21.433594 102.632812 29.84375 140.078125 33.019532 3.621094.308593 7.25.460937 10.878906.460937 15.542969 0 31.050781-2.800781 45.402344-8.238281 60.539063-22.949219 112.015625-70.300782 137.3125-96.488282 13.710937-14.195312 14.492187-36.300781 1.820313-51.421874zm-348.910157 109.882812v4.703125h-25.277343v-126.476563h25.277343zm336.296875-68.886719c-24.421875 25.28125-74.03125 70.96875-131.839844 92.882813-15.613281 5.917968-32.796874 8.296875-49.691406 6.855468-88.335937-7.492187-125.839844-25.4375-139.761718-34.726562v-110.839844h37.699218c6.03125 0 12.003906.914063 17.757813 2.71875l120.5625 37.804688.253906.078125c8.367187 2.585937 13.542969 10.898437 12.042969 19.335937l-.175782.988282c-1.542968 8.652343-9.609374 14.773437-18.351562 13.964843l-99.734375-9.371093c-4.105469-.386719-7.78125 2.644531-8.167969 6.769531-.390625 4.125 2.640625 7.78125 6.765625 8.171875l99.734375 9.371094c.992188.09375 1.976563.136718 2.957032.136718 15.285156 0 28.847656-11.113281 31.570312-26.414062l.175781-.984375c1.214844-6.839844.117188-13.625-2.769531-19.523438 5.773438-.550781 11.476562-1.898437 16.917969-4.0625l78.527343-31.242187c9.421876-3.746094 20.128907-1.042969 26.644532 6.726562 7.726562 9.222656 7.246094 22.703125-1.117188 31.359375zm0 0"/><path d="m285.511719 166.257812c2.179687-3.523437 1.097656-8.148437-2.425781-10.328124-3.519532-2.183594-8.148438-1.101563-10.328126 2.425781-8.035156 12.960937-12.28125 27.800781-12.28125 42.910156-.003906 21.402344 9.046876 47.121094 29.273438 56.335937 3.738281 1.703126 7.164062 2.378907 10.308594 2.378907 7.390625 0 13.214844-3.746094 17.839844-6.722657 2.253906-1.449218 4.382812-2.816406 6.601562-3.824218 9.402344-4.261719 18.636719-4.257813 30.878906.023437 2.5625.898438 5.316406 2.292969 8.230469 3.769531 8.605469 4.355469 19.3125 9.777344 31.175781 4.378907 20.234375-9.207031 29.292969-34.929688 29.285156-56.339844 0-22.132813-8.929687-42.675781-25.132812-57.851563-15.035156-14.078124-35.441406-22.484374-55.984375-23.058593-15.320313-.433594-30.214844 3.449219-43.109375 11.222656-3.550781 2.136719-4.695312 6.746094-2.554688 10.296875 2.136719 3.550781 6.746094 4.691406 10.296876 2.554688 10.429687-6.285157 22.507812-9.425782 34.945312-9.074219 16.933594.472656 33.753906 7.402343 46.148438 19.011719 13.144531 12.308593 20.382812 28.964843 20.386718 46.902343.003906 16.0625-6.410156 36.269531-20.496094 42.679688-5.042968 2.292969-10.195312-.066407-18.183593-4.109375-3.222657-1.632813-6.554688-3.316406-10.050781-4.542969-16.007813-5.597656-28.972657-5.449219-42.035157.476563-3.214843 1.457031-6.03125 3.269531-8.519531 4.867187-6.601562 4.246094-9.128906 5.4375-13.8125 3.308594-14.078125-6.414063-20.492188-26.621094-20.488281-42.675781 0-12.320313 3.46875-24.429688 10.03125-35.015626zm0 0"/><path d="m342.273438 99.234375c27.222656 0 49.367187-22.144531 49.367187-49.367187 0-27.222657-22.144531-49.367188-49.367187-49.367188-27.222657 0-49.367188 22.144531-49.367188 49.367188 0 27.222656 22.144531 49.367187 49.367188 49.367187zm0-83.730469c18.945312 0 34.363281 15.414063 34.363281 34.363282 0 18.949218-15.414063 34.363281-34.363281 34.363281-18.949219 0-34.363282-15.414063-34.363282-34.363281 0-18.949219 15.417969-34.363282 34.363282-34.363282zm0 0"/><path d="m436.710938 135.328125c22.613281 0 41.011718-18.398437 41.011718-41.011719 0-22.617187-18.398437-41.015625-41.011718-41.015625-22.613282 0-41.011719 18.398438-41.011719 41.015625 0 22.613282 18.398437 41.011719 41.011719 41.011719zm0-67.023437c14.339843 0 26.007812 11.667968 26.007812 26.011718 0 14.339844-11.667969 26.007813-26.007812 26.007813-14.339844 0-26.007813-11.667969-26.007813-26.007813 0-14.34375 11.667969-26.011718 26.007813-26.011718zm0 0"/><path d="m247.835938 135.328125c22.613281 0 41.011718-18.398437 41.011718-41.011719 0-22.617187-18.398437-41.015625-41.011718-41.015625-22.617188 0-41.015626 18.398438-41.015626 41.015625 0 22.613282 18.398438 41.011719 41.015626 41.011719zm0-67.023437c14.339843 0 26.007812 11.667968 26.007812 26.011718 0 14.339844-11.667969 26.007813-26.007812 26.007813-14.34375 0-26.007813-11.667969-26.007813-26.007813 0-14.34375 11.664063-26.011718 26.007813-26.011718zm0 0"/></svg>