<svg height="512pt" viewBox="0 -27 512.00003 512" width="512pt" xmlns="http://www.w3.org/2000/svg"><path d="m256.007812 458.957031c-14.167968 0-28.03125-5.742187-38.039062-15.761719-40.640625-40.707031-176.453125-176.71875-176.453125-176.71875-.179687-.179687-.351563-.363281-.519531-.550781-56.699219-62.824219-54.292969-158.894531 5.402344-218.898437.101562-.109375.203124-.210938.304687-.316406 56.953125-56.941407 146.515625-62.101563 209.296875-13.953126 62.78125-48.144531 152.34375-42.988281 209.296875 13.953126.101563.101562.203125.207031.304687.316406 59.695313 60.003906 62.101563 156.074218 5.402344 218.898437-.167968.1875-.339844.371094-.519531.550781 0 0-135.839844 136.039063-176.46875 176.71875-10.144531 10.164063-23.644531 15.761719-38.007813 15.761719zm0 0" fill="#ff4a4a"/><path d="m256.007812 458.957031c14.363282 0 27.863282-5.597656 38.003907-15.761719 40.632812-40.679687 176.472656-176.71875 176.472656-176.71875.179687-.179687.351563-.363281.519531-.550781 56.695313-62.824219 54.292969-158.890625-5.402344-218.898437-.101562-.109375-.203124-.214844-.308593-.316406-56.949219-56.941407-146.511719-62.097657-209.292969-13.953126v426.199219zm0 0" fill="#c7001c"/><g fill-rule="evenodd"><path d="m223.867188 139.78125c8.277343 0 15 6.71875 15 15 0 8.273438-6.722657 15-15 15-8.28125 0-15-6.726562-15-15 0-8.28125 6.71875-15 15-15zm0 0" fill="#fff"/><path d="m175.667969 179.949219c8.277343 0 15 6.71875 15 15 0 8.269531-6.722657 15-15 15-8.28125 0-15-6.730469-15-15 0-8.28125 6.71875-15 15-15zm0 0" fill="#fff"/><path d="m336.332031 179.949219c8.28125 0 15 6.71875 15 15 0 8.269531-6.71875 15-15 15s-15-6.730469-15-15c0-8.28125 6.71875-15 15-15zm0 0" fill="#f3eee9"/><path d="m288.132812 139.78125c8.28125 0 15 6.71875 15 15 0 8.273438-6.71875 15-15 15s-15-6.726562-15-15c0-8.28125 6.71875-15 15-15zm0 0" fill="#f3eee9"/></g><path d="m272.066406 298.316406h-32.132812c-26.378906 0-47.132813-21.480468-47.132813-47.132812 0-34.851563 28.351563-63.203125 63.199219-63.203125s63.199219 28.351562 63.199219 63.203125c0 25.597656-20.699219 47.132812-47.132813 47.132812zm0 0" fill="#fff"/><path d="m272.066406 298.316406c26.433594 0 47.132813-21.535156 47.132813-47.132812 0-34.851563-28.351563-63.203125-63.199219-63.203125v110.335937zm0 0" fill="#f3eee9"/></svg>