<svg id="Layer_1" enable-background="new 0 0 256 256" height="512" viewBox="0 0 256 256" width="512" xmlns="http://www.w3.org/2000/svg"><path d="m57.309 30.53c-16.432 16.432-16.432 43.074 0 59.506l70.715 70.715 70.715-70.715c16.432-16.432 16.432-43.074 0-59.506-16.432-16.432-43.074-16.432-59.506 0l-11.208 11.208-11.21-11.208c-16.432-16.432-43.074-16.432-59.506 0z" fill="#ff4397"/><path d="m198.738 30.53c-9.491-9.49-22.385-13.488-34.753-12.016 9.046 1.077 17.811 5.074 24.753 12.016 16.432 16.432 16.432 43.074 0 59.506l-60.715 70.715 70.715-70.715c16.433-16.432 16.433-43.073 0-59.506z" fill="#e12579"/><path d="m57.309 30.53c9.49-9.49 22.385-13.488 34.753-12.016-9.046 1.077-17.811 5.074-24.753 12.016-16.432 16.432-16.432 43.074 0 59.506l60.715 70.715-70.715-70.714c-16.432-16.433-16.432-43.074 0-59.507z" fill="#ff61b5"/><path d="m128 237.794v-41.161c0-8.276-3.288-16.212-9.139-22.064l-39.603-39.603c-4.905-4.905-12.857-4.905-17.761 0-4.904 4.905-4.904 12.856 0 17.761l16.269 16.269c2.588 2.588 2.588 6.783 0 9.37-2.588 2.588-6.783 2.588-9.37 0l-34.617-34.617c-2.341-2.341-3.656-5.515-3.656-8.826v-38.023c0-7.214-5.848-13.061-13.061-13.061-7.214-.001-13.062 5.847-13.062 13.061v58.321c0 3.31 1.315 6.485 3.656 8.826l55.649 55.649v18.098z" fill="#ff9f70"/><path d="m128 237.794v-41.161c0-8.276 3.288-16.212 9.139-22.064l39.603-39.603c4.905-4.905 12.856-4.905 17.761 0 4.904 4.905 4.904 12.856 0 17.761l-16.269 16.269c-2.587 2.588-2.587 6.783 0 9.37 2.587 2.588 6.783 2.588 9.37 0l34.618-34.617c2.341-2.341 3.656-5.515 3.656-8.826v-38.023c0-7.214 5.848-13.061 13.061-13.061 7.214 0 13.061 5.848 13.061 13.061v58.321c0 3.31-1.315 6.485-3.656 8.826l-55.649 55.649v18.098z" fill="#ff9f70"/><path d="m241.701 84.137c.192.891.299 1.814.299 2.763v58.321c0 3.31-1.315 6.485-3.656 8.826l-52.72 52.72c-1.875 1.875-2.929 4.419-2.929 7.071v23.956h10v-18.098l55.649-55.649c2.341-2.341 3.656-5.515 3.656-8.826v-58.321c0-6.265-4.413-11.494-10.299-12.763z" fill="#e18152"/><path d="m14.299 84.137c-.192.891-.299 1.814-.299 2.763v58.321c0 3.31 1.315 6.485 3.656 8.826l52.72 52.72c1.875 1.875 2.929 4.419 2.929 7.071v23.956h-10v-18.098l-55.649-55.649c-2.341-2.341-3.656-5.516-3.656-8.826v-58.321c0-6.265 4.413-11.494 10.299-12.763z" fill="#ffbd8e"/><path d="m128.024 162.751c-.512 0-1.023-.195-1.414-.586l-70.715-70.714c-17.186-17.186-17.186-45.149 0-62.334 17.186-17.187 45.149-17.187 62.334 0l9.794 9.794 9.794-9.794c8.325-8.325 19.393-12.91 31.167-12.91s22.843 4.585 31.167 12.91c17.186 17.186 17.186 45.149 0 62.334l-70.714 70.714c-.389.391-.901.586-1.413.586zm-40.962-142.545c-10.705 0-20.769 4.169-28.339 11.738-7.569 7.57-11.738 17.634-11.738 28.339 0 10.706 4.169 20.769 11.738 28.339l69.301 69.3 69.3-69.3c15.626-15.626 15.626-41.052 0-56.678-7.57-7.569-17.634-11.738-28.339-11.738s-20.769 4.169-28.339 11.738l-11.208 11.209c-.75.75-2.078.75-2.828 0l-11.208-11.209c-7.571-7.569-17.634-11.738-28.34-11.738z" fill="#690589"/><path d="m55.316 50.188c-.27 0-.543-.055-.806-.17-1.011-.445-1.469-1.626-1.023-2.637 2.073-4.705 4.98-8.947 8.642-12.608.78-.781 2.048-.781 2.828 0 .781.781.781 2.047 0 2.828-3.309 3.309-5.936 7.142-7.809 11.393-.331.748-1.064 1.194-1.832 1.194z" fill="#690589"/><path d="m192.695 239.794h-64.695c-1.104 0-2-.896-2-2v-41.161c0-8.869 3.454-17.207 9.725-23.478l39.603-39.602c2.75-2.75 6.406-4.265 10.295-4.265s7.545 1.515 10.294 4.265c2.75 2.749 4.265 6.405 4.265 10.294s-1.515 7.545-4.265 10.294l-16.269 16.27c-1.803 1.804-1.803 4.738 0 6.542 1.804 1.804 4.738 1.804 6.542 0l34.618-34.618c1.979-1.98 3.07-4.611 3.07-7.412v-38.023c0-8.305 6.756-15.062 15.061-15.062s15.062 6.756 15.062 15.062v58.321c0 3.868-1.506 7.505-4.242 10.24l-55.063 55.063v17.269c-.001 1.105-.896 2.001-2.001 2.001zm-62.695-4h60.695v-16.098c0-.53.211-1.039.586-1.414l55.649-55.649c1.98-1.98 3.07-4.612 3.07-7.412v-58.321c0-6.099-4.962-11.062-11.062-11.062-6.099 0-11.061 4.962-11.061 11.062v38.023c0 3.869-1.506 7.505-4.242 10.24l-34.618 34.617c-3.363 3.363-8.835 3.363-12.198 0s-3.363-8.836 0-12.198l16.269-16.27c1.994-1.995 3.093-4.646 3.093-7.466s-1.099-5.472-3.093-7.466c-1.995-1.994-4.646-3.093-7.466-3.093s-5.472 1.099-7.466 3.093l-39.603 39.603c-5.516 5.516-8.553 12.85-8.553 20.65z" fill="#690589"/><path d="m128 239.794h-64.695c-1.104 0-2-.896-2-2v-17.269l-55.063-55.064c-2.736-2.735-4.242-6.372-4.242-10.24v-58.321c0-8.305 6.756-15.062 15.062-15.062 8.305 0 15.061 6.756 15.061 15.062v38.023c0 2.8 1.09 5.432 3.07 7.411l34.618 34.618c1.804 1.804 4.738 1.804 6.542 0 1.803-1.804 1.803-4.738 0-6.542l-16.269-16.27c-2.75-2.749-4.265-6.405-4.265-10.294s1.515-7.545 4.265-10.294c2.75-2.75 6.405-4.265 10.294-4.265s7.545 1.515 10.294 4.265l39.603 39.602c6.271 6.271 9.725 14.609 9.725 23.478v41.161c0 1.105-.896 2.001-2 2.001zm-62.695-4h60.695v-39.161c0-7.8-3.038-15.134-8.553-20.65l-39.603-39.603c-1.995-1.994-4.646-3.093-7.466-3.093s-5.472 1.099-7.466 3.093c-1.994 1.995-3.093 4.646-3.093 7.466s1.099 5.472 3.093 7.466l16.269 16.27c3.363 3.363 3.363 8.835 0 12.198s-8.835 3.363-12.198 0l-34.618-34.618c-2.735-2.734-4.242-6.371-4.242-10.24v-38.022c0-6.099-4.962-11.062-11.061-11.062s-11.062 4.963-11.062 11.062v58.321c0 2.8 1.09 5.432 3.07 7.412l55.649 55.649c.375.375.586.884.586 1.414z" fill="#690589"/><ellipse cx="114.652" cy="62.26" fill="#7bac51" rx="9.928" ry="12.524" transform="matrix(.94 -.342 .342 .94 -14.37 42.901)"/><path d="m103.243 75.578c3.405 5.101 2.886 11.425-1.158 14.124s-10.082.751-13.487-4.35-2.886-11.425 1.158-14.124 10.082-.752 13.487 4.35z" fill="#7bac51"/><ellipse cx="141.348" cy="62.26" fill="#7bac51" rx="12.524" ry="9.928" transform="matrix(.342 -.94 .94 .342 34.557 173.844)"/><path d="m152.757 75.578c-3.405 5.101-2.886 11.425 1.158 14.124s10.082.751 13.487-4.35 2.886-11.425-1.158-14.124-10.082-.752-13.487 4.35z" fill="#7bac51"/><path d="m117.085 83.683c5.924-6.29 15.923-6.288 21.844.005l10.113 10.748c5.412 5.747 5.616 14.699.354 20.695-4.205 4.792-11.04 6.318-17.057 4.209l-4.339-1.521-4.339 1.521c-6.017 2.109-12.851.583-17.057-4.209-5.262-5.996-5.058-14.948.354-20.695z" fill="#7bac51"/><g fill="#690589"><path d="m116.159 76.517c-2.058 0-4.154-.618-6.129-1.834-2.953-1.818-5.293-4.784-6.589-8.35-2.734-7.527.069-15.478 6.251-17.725 6.183-2.248 13.436 2.051 16.171 9.577 2.734 7.527-.069 15.478-6.25 17.724-1.118.407-2.28.608-3.454.608zm-3.009-24.514c-.709 0-1.412.118-2.092.365-4.108 1.493-5.838 7.145-3.857 12.599.989 2.722 2.739 4.963 4.926 6.31 2.04 1.255 4.212 1.567 6.119.873 4.108-1.493 5.838-7.144 3.857-12.598-1.653-4.551-5.377-7.549-8.953-7.549z"/><path d="m97.966 92.922c-1.132 0-2.302-.188-3.478-.567-2.975-.96-5.658-3.052-7.553-5.893-1.896-2.841-2.799-6.122-2.544-9.237.27-3.289 1.781-6.01 4.255-7.661 4.956-3.306 12.251-1.107 16.261 4.903 4.011 6.011 3.243 13.591-1.711 16.898-1.549 1.033-3.338 1.557-5.23 1.557zm-4.055-20.92c-1.097 0-2.142.286-3.045.889-1.438.959-2.321 2.614-2.489 4.661-.182 2.22.487 4.596 1.885 6.689 1.397 2.094 3.334 3.623 5.454 4.307 1.954.63 3.822.449 5.259-.51 3.121-2.083 3.392-7.174.605-11.35-1.98-2.967-4.979-4.686-7.669-4.686z"/><path d="m139.841 76.517c-1.174 0-2.335-.201-3.454-.607-6.181-2.246-8.985-10.197-6.251-17.724 2.735-7.526 9.989-11.823 16.171-9.577 6.181 2.247 8.985 10.198 6.25 17.725-1.296 3.566-3.636 6.531-6.589 8.35-1.972 1.215-4.07 1.833-6.127 1.833zm-5.945-16.965c-1.982 5.454-.251 11.105 3.857 12.598 1.905.692 4.079.383 6.119-.873 2.188-1.347 3.938-3.588 4.926-6.31 1.982-5.454.251-11.105-3.857-12.599-4.105-1.493-9.063 1.73-11.045 7.184z"/><path d="m158.034 92.922c-1.892 0-3.682-.524-5.229-1.557-4.955-3.307-5.723-10.887-1.711-16.898 4.011-6.01 11.306-8.21 16.261-4.903 2.474 1.651 3.985 4.372 4.255 7.661.255 3.115-.648 6.396-2.544 9.237-1.895 2.841-4.578 4.934-7.553 5.893-1.177.379-2.346.567-3.479.567zm-3.614-16.234c-2.787 4.176-2.516 9.268.605 11.35 1.438.959 3.306 1.141 5.259.51 2.12-.684 4.057-2.213 5.454-4.307s2.067-4.469 1.885-6.689c-.168-2.046-1.052-3.702-2.489-4.661-3.12-2.082-7.926-.379-10.714 3.797z"/><path d="m118.273 122.256c-5.013 0-9.879-2.053-13.172-5.806-5.945-6.774-5.773-16.828.401-23.385l10.126-10.753c3.246-3.447 7.642-5.345 12.376-5.345h.003c4.736.001 9.132 1.901 12.378 5.35l10.112 10.748c6.174 6.556 6.347 16.609.401 23.385-4.622 5.267-12.347 7.188-19.222 4.777l-3.676-1.289-3.677 1.289c-1.978.694-4.027 1.029-6.05 1.029zm.268-37.202-10.126 10.753c-4.753 5.047-4.885 12.788-.306 18.004 3.556 4.053 9.541 5.516 14.892 3.642l4.339-1.521c.429-.15.895-.15 1.323 0l4.339 1.521c5.35 1.873 11.335.412 14.892-3.642 4.579-5.217 4.447-12.957-.307-18.004l-10.113-10.748c-2.482-2.638-5.844-4.091-9.466-4.091-.001 0-.002 0-.002 0-3.622-.001-6.983 1.451-9.465 4.086z"/></g></svg>