<?xml version="1.0"?>
<svg xmlns="http://www.w3.org/2000/svg" viewBox="0 0 64 64" width="120" height="120"><g id="Animal-Store"><path d="M32,12a3,3,0,1,0-3-3A3,3,0,0,0,32,12Zm0-4a1,1,0,1,1-1,1A1,1,0,0,1,32,8Z"/><path d="M38,15a3,3,0,1,0-3-3A3,3,0,0,0,38,15Zm0-4a1,1,0,1,1-1,1A1,1,0,0,1,38,11Z"/><path d="M29,12a3,3,0,1,0-3,3A3,3,0,0,0,29,12Zm-4,0a1,1,0,1,1,1,1A1,1,0,0,1,25,12Z"/><path d="M32,14a5,5,0,1,0,5,5A5.006,5.006,0,0,0,32,14Zm0,8a3,3,0,1,1,3-3A3,3,0,0,1,32,22Z"/><path d="M46,44H34a2,2,0,0,0-2,2v6a2,2,0,0,0,2,2H46a2,2,0,0,0,2-2V46A2,2,0,0,0,46,44ZM34,52V46H46v6Z"/><path d="M53.816,60A2.966,2.966,0,0,0,54,59V39.577A4.98,4.98,0,0,0,56.9,36H58a1,1,0,0,0,1-1A18.953,18.953,0,0,0,44.883,16.65a13,13,0,1,0-25.765.008A19.063,19.063,0,0,0,5,35a1,1,0,0,0,1,1H7.1A4.977,4.977,0,0,0,10,39.581V59a2.966,2.966,0,0,0,.184,1H4v2H60V60ZM52.022,22.976A16.923,16.923,0,0,1,56.972,34H56a1,1,0,0,0-1,1,2.994,2.994,0,0,1-2.271,2.907A2.634,2.634,0,0,1,52,38a3,3,0,0,1-3-3V31a14.889,14.889,0,0,0-4.965-11.1,13.13,13.13,0,0,0,.445-1.288A16.883,16.883,0,0,1,52.022,22.976ZM20.906,21.741a13.046,13.046,0,0,0,2.13,2.651c-.013.2-.036.4-.036.608V35a3,3,0,0,1-6,0V31A12.9,12.9,0,0,1,20.906,21.741ZM25,25.937a12.9,12.9,0,0,0,6,2.012V35a3,3,0,0,1-6,0Zm8,2.012a12.9,12.9,0,0,0,6-2.012V35a3,3,0,0,1-6,0Zm7.964-3.557a13.046,13.046,0,0,0,2.13-2.651A12.9,12.9,0,0,1,47,31v4a3,3,0,0,1-6,0V25C41,24.792,40.977,24.593,40.964,24.392ZM32,4A11,11,0,1,1,21,15,11.013,11.013,0,0,1,32,4ZM9,35a1,1,0,0,0-1-1H7.029A17.066,17.066,0,0,1,19.522,18.616a13.081,13.081,0,0,0,.443,1.281A14.889,14.889,0,0,0,15,31v4a3,3,0,0,1-3,3,2.713,2.713,0,0,1-.754-.1A2.987,2.987,0,0,1,9,35ZM26,60H18V47a1,1,0,0,1,1-1h6a1,1,0,0,1,1,1Zm2,0V47a3,3,0,0,0-3-3H19a3,3,0,0,0-3,3V60H13a1,1,0,0,1-1-1V40a4.982,4.982,0,0,0,4-2.031,4.954,4.954,0,0,0,8,0,4.954,4.954,0,0,0,8,0,4.954,4.954,0,0,0,8,0,4.954,4.954,0,0,0,8,0A4.982,4.982,0,0,0,52,40V59a1,1,0,0,1-1,1Z"/><rect x="23" y="51" width="2" height="4"/></g></svg>
