<?xml version="1.0" encoding="iso-8859-1"?>
<!-- Generator: Adobe Illustrator 19.0.0, SVG Export Plug-In . SVG Version: 6.00 Build 0)  -->
<svg version="1.1" id="Layer_1" xmlns="http://www.w3.org/2000/svg" xmlns:xlink="http://www.w3.org/1999/xlink" x="0px" y="0px"
	 viewBox="0 0 496.158 496.158" style="enable-background:new 0 0 496.158 496.158;" xml:space="preserve">
<path style="fill:#EDC92F;" d="M248.075,0C111.07,0,0,111.062,0,248.083c0,137.005,111.07,248.075,248.075,248.075
	c137.013,0,248.083-111.07,248.083-248.075C496.158,111.062,385.088,0,248.075,0z"/>
<path style="fill:#C1C1C1;" d="M248.075,230.731c-109.945,0-199.066,28.888-199.066,64.524c0,35.628,89.121,64.517,199.066,64.517
	s199.074-28.888,199.074-64.517C447.149,259.62,358.02,230.731,248.075,230.731z"/>
<g>
	<ellipse style="fill:#DDDDDD;" cx="248.079" cy="177.569" rx="148.56" ry="41.19"/>
	<path style="fill:#DDDDDD;" d="M248.075,245.237c-99.633,0-180.398,22.393-180.398,50.019c0,27.618,80.766,50.011,180.398,50.011
		c99.641,0,180.406-22.393,180.406-50.011C428.481,267.63,347.716,245.237,248.075,245.237z"/>
	<polygon style="fill:#DDDDDD;" points="396.641,177.576 99.51,177.576 68.617,292.31 427.533,292.31 	"/>
</g>
<path id="SVGCleanerId_0" style="fill:#C4C4C4;" d="M248.075,146.117c-68.533,0-124.083,15.4-124.083,34.404
	c0,18.996,55.55,34.396,124.083,34.396s124.091-15.4,124.091-34.396C372.166,161.517,316.608,146.117,248.075,146.117z"/>
<g>
	<path id="SVGCleanerId_0_1_" style="fill:#C4C4C4;" d="M248.075,146.117c-68.533,0-124.083,15.4-124.083,34.404
		c0,18.996,55.55,34.396,124.083,34.396s124.091-15.4,124.091-34.396C372.166,161.517,316.608,146.117,248.075,146.117z"/>
</g>
<path style="fill:#663514;" d="M258.189,185.808l-30.893-13.167c-2.899-1.239-6.251,0.115-7.49,3.007l-6.702,15.745
	c-1.239,2.892,0.107,6.243,3.007,7.475l30.9,13.174c2.892,1.231,6.243-0.115,7.475-3.014l6.71-15.737
	C262.435,190.391,261.089,187.039,258.189,185.808z"/>
<path style="fill:#919191;" d="M248.075,146.117c-68.533,0-124.083,15.4-124.083,34.404c0,18.996,55.55,34.396,124.083,34.396
	s124.091-15.4,124.091-34.396C372.166,161.517,316.608,146.117,248.075,146.117z"/>
<g>
	<path style="fill:#843C0B;" d="M248.343,174.615l-22.033-42.3c-2.065-3.971-6.958-5.508-10.937-3.443l-21.544,11.231
		c-3.959,2.062-5.504,6.951-3.435,10.921l22.037,42.303c2.062,3.963,6.954,5.501,10.917,3.435l21.556-11.223
		C248.867,183.471,250.409,178.586,248.343,174.615z"/>
	<path style="fill:#843C0B;" d="M348.239,141.848l-23.181-7.272c-4.262-1.335-8.806,1.029-10.148,5.306l-14.287,45.505
		c-1.343,4.261,1.032,8.81,5.302,10.145l23.185,7.283c4.266,1.339,8.806-1.033,10.148-5.302l14.291-45.501
		C354.888,147.743,352.516,143.194,348.239,141.848z"/>
</g>
<path style="fill:#421E06;" d="M327.617,162.47l-43.887-18.702c-4.116-1.756-8.875,0.161-10.627,4.276l-9.528,22.351
	c-1.748,4.112,0.164,8.867,4.284,10.623l43.872,18.702c4.119,1.748,8.874-0.165,10.626-4.273l9.529-22.354
	C333.635,168.976,331.722,164.218,327.617,162.47z"/>
<path style="fill:#B04902;" d="M276.799,194.552l-12.604-46.002c-1.183-4.311-5.635-6.855-9.954-5.669l-23.434,6.419
	c-4.314,1.178-6.854,5.634-5.672,9.949l12.604,46.002c1.186,4.311,5.643,6.855,9.953,5.673l23.434-6.426
	C275.441,203.32,277.985,198.867,276.799,194.552z"/>
<path style="fill:#421E06;" d="M274.855,187.885l-20.373-13.235c-3.749-2.44-8.768-1.381-11.204,2.375l-24.011,36.952
	c9.249,0.604,18.885,0.941,28.808,0.941c6.507,0,12.895-0.142,19.13-0.409l10.019-15.419
	C279.668,195.34,278.604,190.322,274.855,187.885z"/>
<path style="fill:#B04902;" d="M358.927,173.353l-47.62-2.739c-4.464-0.26-8.301,3.152-8.554,7.616l-1.399,24.256
	c-0.214,3.883,2.329,7.279,5.937,8.271c27.576-4.162,48.807-11.139,58.718-19.532l0.535-9.322
	C366.804,177.438,363.395,173.605,358.927,173.353z"/>
<path style="fill:#9D633C;" d="M255.615,165.893l-46.775-9.356c-4.38-0.88-8.656,1.966-9.529,6.346l-4.77,23.827
	c-0.88,4.392,1.97,8.653,6.342,9.529l46.775,9.36c4.392,0.88,8.664-1.966,9.528-6.35l4.771-23.824
	C262.837,171.042,259.995,166.773,255.615,165.893z"/>
<g>
	<path style="fill:#919191;" d="M126.383,187.25c0.471,0.658,0.998,1.312,1.603,1.955
		C127.385,188.562,126.853,187.908,126.383,187.25z"/>
	<path style="fill:#919191;" d="M147.693,200.726c4.36,1.668,9.249,3.213,14.589,4.629
		C156.942,203.939,152.054,202.39,147.693,200.726z"/>
	<path style="fill:#919191;" d="M125.2,185.272c0.245,0.497,0.54,0.987,0.861,1.477C125.74,186.263,125.449,185.769,125.2,185.272z"
		/>
	<path style="fill:#919191;" d="M123.992,180.521c0-0.742,0.114-1.477,0.279-2.211C124.099,179.045,123.992,179.779,123.992,180.521
		z"/>
	<path style="fill:#919191;" d="M124.351,178.019c0.191-0.704,0.439-1.4,0.772-2.088
		C124.791,176.62,124.535,177.316,124.351,178.019z"/>
</g>
<g>
	<path style="fill:#9D633C;" d="M125.128,175.915c-0.004,0.008-0.004,0.008-0.004,0.016c0-0.008,0.004-0.012,0.008-0.016H125.128z"
		/>
	<path style="fill:#9D633C;" d="M178.877,191.729l-43.888-18.698c-3.618-1.545-7.727-0.253-9.857,2.884
		c-0.004,0.004-0.008,0.008-0.008,0.016c-0.333,0.688-0.581,1.385-0.772,2.088c-0.023,0.1-0.058,0.195-0.08,0.291
		c-0.173,0.734-0.279,1.469-0.279,2.211c0,0.685,0.092,1.366,0.236,2.042c0.043,0.207,0.111,0.413,0.169,0.62
		c0.134,0.475,0.294,0.957,0.497,1.431c0.096,0.218,0.195,0.44,0.306,0.658c0.249,0.497,0.54,0.991,0.861,1.477
		c0.11,0.168,0.202,0.336,0.321,0.501c0.471,0.658,0.998,1.312,1.603,1.955c0.065,0.062,0.142,0.13,0.203,0.195
		c0.555,0.578,1.162,1.144,1.82,1.706c0.191,0.165,0.401,0.333,0.604,0.497c0.589,0.478,1.213,0.953,1.878,1.427
		c0.215,0.153,0.429,0.306,0.654,0.459c0.826,0.563,1.698,1.117,2.628,1.668c0.065,0.038,0.122,0.077,0.188,0.111
		c1.071,0.624,2.207,1.236,3.404,1.84c0.054,0.027,0.115,0.054,0.169,0.081c1.109,0.555,2.275,1.094,3.484,1.625
		c0.207,0.092,0.417,0.184,0.624,0.272c1.166,0.501,2.375,0.998,3.63,1.48c0.142,0.054,0.279,0.107,0.421,0.161
		c4.36,1.664,9.249,3.213,14.589,4.629c0.107,0.03,0.211,0.057,0.314,0.084c5.42,1.431,11.303,2.724,17.584,3.864l2.965-6.947
		C184.893,198.236,182.981,193.481,178.877,191.729z"/>
</g>
<path style="fill:#919191;" d="M183.195,209.838c14.517,2.479,31.015,4.139,48.676,4.774
	C214.206,213.977,197.708,212.313,183.195,209.838z"/>
<path style="fill:#632D08;" d="M236.263,196.779l-18.655-15.569c-3.42-2.861-8.526-2.402-11.396,1.033l-23.036,27.595
	c0.008,0,0.012,0,0.012,0c14.521,2.475,31.019,4.139,48.684,4.774c0.02,0.004,0.043,0.004,0.062,0.008l5.363-6.426
	C240.165,204.758,239.694,199.647,236.263,196.779z"/>
<g>
	<path style="fill:#919191;" d="M300.856,211.651c4.682-0.612,9.191-1.301,13.533-2.066
		C310.048,210.35,305.534,211.039,300.856,211.651z"/>
	<path style="fill:#919191;" d="M277.996,213.9c5.1-0.348,10.072-0.788,14.899-1.308C288.064,213.112,283.096,213.552,277.996,213.9
		z"/>
</g>
<g>
	<path style="fill:#843C0B;" d="M321.245,208.292c0.038-0.007,0.076-0.011,0.11-0.019v-0.004
		C321.321,208.277,321.283,208.285,321.245,208.292z"/>
	<path style="fill:#843C0B;" d="M320.801,181.967c-0.75-4.411-4.931-7.375-9.33-6.625l-47.023,8.002
		c-4.41,0.75-7.379,4.935-6.629,9.345l3.749,22.022c2.593-0.08,5.16-0.184,7.703-0.306c0.383-0.015,0.762-0.038,1.145-0.053
		c2.402-0.123,4.789-0.26,7.142-0.421c0.146-0.008,0.294-0.016,0.439-0.031c5.1-0.348,10.072-0.788,14.899-1.308
		c0.333-0.035,0.666-0.069,0.999-0.107c2.249-0.249,4.472-0.513,6.655-0.796c0.1-0.015,0.203-0.023,0.307-0.038
		c4.678-0.612,9.191-1.301,13.533-2.066c0.271-0.046,0.543-0.096,0.812-0.145c2.058-0.367,4.077-0.746,6.044-1.148
		c0.038-0.007,0.076-0.015,0.11-0.023c0.429-1.208,1.121-2.333,2.177-3.244l1.036-0.907L320.801,181.967z"/>
</g>
<path style="fill:#9D633C;" d="M369.312,173.184c-2.953-1.943-6.935-1.813-9.735,0.612l-35.009,30.323l-1.036,0.907
	c-1.056,0.911-1.748,2.035-2.177,3.248c30.801-6.262,50.811-16.356,50.811-27.752C372.166,178,371.164,175.548,369.312,173.184z"/>
<path style="fill:#5B2C12;" d="M188.164,137.151l-23.98-3.895c-4.406-0.715-8.568,2.28-9.288,6.694l-7.646,47.081
	c-0.719,4.415,2.28,8.576,6.694,9.288l23.984,3.901c4.414,0.712,8.572-2.28,9.292-6.694l7.65-47.082
	C195.589,142.032,192.59,137.87,188.164,137.151z"/>
<path style="fill:#421E06;" d="M216.219,188.248l-13.277-20.347c-2.444-3.741-7.467-4.801-11.216-2.36l-39.936,26.073
	c-3.194,2.081-4.411,6.028-3.194,9.467c12.114,4.495,28.108,8.136,46.596,10.554l18.667-12.179
	C217.607,197.016,218.663,191.989,216.219,188.248z"/>
<g>
</g>
<g>
</g>
<g>
</g>
<g>
</g>
<g>
</g>
<g>
</g>
<g>
</g>
<g>
</g>
<g>
</g>
<g>
</g>
<g>
</g>
<g>
</g>
<g>
</g>
<g>
</g>
<g>
</g>
</svg>
