<?xml version="1.0"?>
<svg xmlns="http://www.w3.org/2000/svg" height="512px" viewBox="0 -42 512 511" width="512px" class=""><g transform="matrix(0.793456 0 0 0.793456 52.8753 44.0972)"><path d="m496.988281 168.066406c8.3125-.21875 15.011719-7.035156 15.011719-15.398437v-112.921875c0-21.640625-17.605469-39.246094-39.246094-39.246094h-433.507812c-21.640625 0-39.246094 17.605469-39.246094 39.246094v112.921875c0 8.363281 6.699219 15.179687 15.011719 15.398437v208.714844h-7.511719c-4.140625 0-7.5 3.359375-7.5 7.5v35.367188c0 4.140624 3.359375 7.5 7.5 7.5h497c4.144531 0 7.5-3.359376 7.5-7.5v-35.367188c0-4.140625-3.355469-7.5-7.5-7.5h-7.511719zm-15 128.507813h-49.652343v-86.46875c0-8.394531-6.832032-15.226563-15.230469-15.226563h-106.269531c-4.144532 0-7.5 3.355469-7.5 7.5 0 4.140625 3.355468 7.5 7.5 7.5h106.269531c.128906 0 .230469.101563.230469.226563v126.234375c0 .128906-.105469.230468-.230469.230468h-159.886719c-.125 0-.230469-.101562-.230469-.230468v-126.234375c0-.125.105469-.226563.230469-.226563h18.617188c4.140624 0 7.5-3.359375 7.5-7.5 0-4.144531-3.359376-7.5-7.5-7.5h-18.617188c-8.398438 0-15.230469 6.832032-15.230469 15.226563v86.46875h-49.652343v-94.195313c0-4.144531-3.359376-7.5-7.5-7.5h-122.339844c-4.140625 0-7.5 3.355469-7.5 7.5v94.195313h-24.984375v-128.484375h451.976562zm-329.652343 90.574219h-57.339844v-152.269532h57.339844zm15-100.046876h10v47.824219h-10zm234.21875-134.011718v-137.589844h40.222656v137.589844zm-15 0h-40.222657v-137.589844h40.222657zm-55.222657 0h-40.222656v-137.589844h40.222656zm-55.222656 0h-40.222656v-137.589844h40.222656zm-55.21875 0h-40.222656v-137.589844h40.222656zm-55.222656 0h-40.222657v-137.589844h40.222657zm331.332031-113.34375v112.921875c0 .230469-.1875.417969-.417969.417969h-39.804687v-137.585938h15.976562c13.367188 0 24.246094 10.878906 24.246094 24.246094zm-482 0c0-13.367188 10.878906-24.246094 24.246094-24.246094h15.976562v18.285156c0 4.140625 3.359375 7.5 7.5 7.5s7.5-3.359375 7.5-7.5v-18.285156h40.222656v137.589844h-40.222656v-84.304688c0-4.144531-3.359375-7.5-7.5-7.5-4.144531 0-7.5 3.355469-7.5 7.5v84.304688h-39.804687c-.230469 0-.417969-.191406-.417969-.421875zm15.011719 271.828125h24.984375v65.207031h-24.984375zm-15.011719 80.207031h39.996094v20.367188h-39.996094zm54.996094-181.902344h107.339844v62.222656h-10v-44.722656c0-4.144531-3.359376-7.5-7.5-7.5h-72.339844c-4.140625 0-7.5 3.355469-7.5 7.5v167.269532c0 4.140624 3.359375 7.5 7.5 7.5h72.339844c4.140624 0 7.5-3.359376 7.5-7.5v-44.722657h10v62.222657h-107.339844zm370.597656 166.902344c-4.144531 0-7.5 3.359375-7.5 7.5 0 4.144531 3.355469 7.5 7.5 7.5h56.40625v20.367188h-304.664062v-20.367188h213.257812c4.140625 0 7.5-3.355469 7.5-7.5 0-4.140625-3.359375-7.5-7.5-7.5h-213.257812v-65.207031h49.652343v24.769531c0 8.394531 6.832031 15.226562 15.230469 15.226562h159.886719c8.398437 0 15.230469-6.832031 15.230469-15.226562v-24.769531h49.652343v65.207031zm0 0" data-original="#000000" class="active-path" data-old_color="#000000" fill="#000000"/><path d="m302.855469 282.308594-.015625-.015625c-9.261719 9.214843-7.769532 20.847656-7.769532 20.746093.929688 13.304688 11.679688 23.898438 25 24.644532 3.753907.214844 7.421876-.347656 10.902344-1.664063 4.035156-1.523437 8.476563-1.523437 12.511719 0 3.003906 1.136719 6.148437 1.710938 9.367187 1.710938 14.25 0 25.582032-11.089844 26.535157-24.6875.542969-7.714844-2.273438-15.257813-7.730469-20.707031l-11.039062-11.292969c-12.847657-13.140625-33.9375-13.136719-46.777344 0-10.6875 10.929687-10.355469 10.546875-10.984375 11.265625zm47.039062-.78125c15.042969 15.386718 10.125 10.378906 11.144531 11.398437 2.425782 2.414063 3.625 5.632813 3.386719 9.066407-.566406 8.058593-8.648437 12.640624-15.640625 9.992187-7.453125-2.8125-15.660156-2.8125-23.113281 0-6.976563 2.640625-15.074219-1.90625-15.640625-9.992187v-.003907c-.242188-3.433593.960938-6.652343 3.386719-9.0625.03125-.035156.234375-.253906 1.324219-1.363281 1.347656-1.375 4.121093-4.207031 9.820312-10.039062 6.957031-7.109376 18.375-7.109376 25.332031.003906zm0 0" data-original="#000000" class="active-path" data-old_color="#000000" fill="#000000"/><path d="m303.179688 257.773438c-6.097657-10.554688-17.808594-14.820313-26.667969-9.707032-8.503907 4.910156-11.167969 17.136719-4.925781 27.949219 4.351562 7.535156 11.5625 11.863281 18.558593 11.863281 2.800781 0 5.570313-.695312 8.105469-2.160156 8.855469-5.113281 11.023438-17.386719 4.929688-27.945312zm-12.429688 14.957031c-.8125.46875-3.984375-.425781-6.175781-4.214844-1.074219-1.863281-1.570313-3.914063-1.359375-5.625.109375-.898437.421875-1.617187.796875-1.832031.839843-.484375 4.011719.464844 6.175781 4.214844 2.1875 3.792968 1.375 6.988281.5625 7.457031zm0 0" data-original="#000000" class="active-path" data-old_color="#000000" fill="#000000"/><path d="m298.148438 245.4375c2.929687 10.941406 11.457031 18.195312 20.523437 18.195312 1.46875 0 2.949219-.191406 4.425781-.585937 10.585938-2.835937 16.207032-15.015625 12.800782-27.722656-3.40625-12.710938-14.367188-20.445313-24.949219-17.609375-10.582031 2.835937-16.207031 15.011718-12.800781 27.722656zm16.683593-13.234375c.136719-.035156.285157-.054687.441407-.054687 1.839843 0 4.921874 2.523437 6.136718 7.054687 1.320313 4.917969-.449218 8.886719-2.195312 9.355469-1.734375.46875-5.261719-2.085938-6.578125-7-1.316407-4.917969.449219-8.886719 2.195312-9.355469zm0 0" data-original="#000000" class="active-path" data-old_color="#000000" fill="#000000"/><path d="m371.277344 257.773438c-2.710938 4.699218-3.867188 10.011718-3.257813 14.960937 1.128907 9.144531 8.058594 15.144531 16.292969 15.144531 12.699219 0 23.425781-13.769531 21.816406-26.824218-.695312-5.652344-3.679687-10.386719-8.183594-12.984376-8.855468-5.113281-20.570312-.851562-26.667968 9.703126zm12.992187 7.5c2.1875-3.789063 5.363281-4.6875 6.175781-4.214844.375.21875.6875.933594.796876 1.832031.210937 1.710937-.28125 3.761719-1.359376 5.625-2.1875 3.789063-5.367187 4.6875-6.175781 4.214844-.375-.214844-.6875-.933594-.796875-1.832031-.214844-1.710938.28125-3.761719 1.359375-5.625zm0 0" data-original="#000000" class="active-path" data-old_color="#000000" fill="#000000"/><path d="m351.359375 263.046875c1.476563.394531 2.957031.585937 4.421875.585937 9.070312 0 17.597656-7.253906 20.527344-18.195312 3.40625-12.710938-2.21875-24.886719-12.804688-27.722656-10.578125-2.835938-21.542968 4.898437-24.949218 17.609375-3.40625 12.707031 2.21875 24.886719 12.804687 27.722656zm1.6875-23.84375c1.214844-4.53125 4.296875-7.054687 6.136719-7.054687.15625 0 .304687.019531.441406.054687 1.746094.46875 3.511719 4.4375 2.195312 9.351563-1.316406 4.914062-4.820312 7.464843-6.578124 7.003906-1.746094-.46875-3.515626-4.4375-2.195313-9.355469zm0 0" data-original="#000000" class="active-path" data-old_color="#000000" fill="#000000"/></g> </svg>
