<svg height="511pt" viewBox="0 -38 511.99955 511" width="511pt" xmlns="http://www.w3.org/2000/svg"><path d="m380.3125 47.75c-21.144531-26.019531-45.921875-36.40625-73.648438-30.863281-21.042968 4.203125-35.863281 16.117187-36.011718 16.238281-3.207032 2.605469-7.917969 2.125-10.53125-1.082031-2.609375-3.203125-2.125-7.917969 1.078125-10.527344.722656-.585937 17.886719-14.386719 42.53125-19.308594 23.101562-4.617187 57.15625-2.097656 88.199219 36.101563 21.207031 26.097656 49.878906 40.484375 71.34375 35.792968 16.214843-3.542968 27.96875-17.765624 33.992187-41.136718 1.03125-4.003906 5.117187-6.410156 9.117187-5.378906s6.410157 5.113281 5.378907 9.117187c-18.78125 72.867187-87.164063 65.539063-131.449219 11.046875zm0 0" fill="#f45858"/><path d="m417.074219 224.585938c0 112.808593-91.449219 204.257812-204.257813 204.257812s-204.257812-91.449219-204.257812-204.257812c0-112.808594 91.449218-204.257813 204.257812-204.257813s204.257813 91.449219 204.257813 204.257813zm0 0" fill="#f45858"/><path d="m35.921875 224.585938c0-108.207032 84.148437-196.75 190.578125-203.789063-118.511719-7.839844-217.941406 86.054687-217.941406 203.789063 0 117.640624 99.339844 211.636718 217.9375 203.792968-106.425782-7.042968-190.574219-95.582031-190.574219-203.792968zm0 0" fill="#e84949"/><path d="m409.675781 302.566406c.707031-1.34375 12.394531-29.519531 14.503907-65.386718 6.007812-100.027344-59.480469-191.082032-156.3125-217.089844-165.765626-44.523438-308.246094 116.667968-257.421876 266.882812 58.042969 188.503906 324.820313 202.78125 399.230469 15.59375zm-14.039062-5.292968c-4.6875 11.78125-10.476563 23.03125-17.324219 33.648437-.160156-23.664063-4.089844-46.867187-11.691406-69.050781 7.273437-13.3125 13.207031-27.425782 17.636718-42.140625 8.613282 24.796875 12.457032 50.921875 11.378907 77.542969zm-202.417969 10.125c-7.128906-11.761719-12.316406-23.546876-16.101562-35.878907 85.71875-28.226562 149.179687-109.492187 149.492187-207.382812 5.515625 3.921875 10.816406 8.132812 15.890625 12.589843 16.949219 104.921876-47.929688 204.832032-149.28125 230.671876zm-19.277344-117.921876c23.972656 5.515626 46.398438 15.234376 66.863282 28.96875-19.472657 16.882813-42.25 30.144532-67.429688 38.558594-4.480469-21.585937-4.601562-44.625.566406-67.527344zm78.066406 18.484376c-22.347656-15.464844-47.695312-26.71875-74.074218-32.910157 4.859375-14.660156 11.542968-28.433593 20.730468-41.675781 30.007813 5.6875 58.515626 18.214844 83.085938 36.523438-8.394531 13.820312-18.382812 26.605468-29.742188 38.0625zm56.371094-108.207032c-13.5625-8.855468-27.957031-16.179687-43.035156-21.902344 14.683594-6.609374 30.28125-10.960937 46.296875-12.878906-.089844 11.800782-1.210937 23.425782-3.261719 34.78125zm-19.277344 56.996094c-23.984374-17.539062-51.371093-30.015625-80.25-36.550781 10.984376-12.804688 23.933594-23.875 38.375-32.742188 20.5625 6.316407 39.925782 15.707031 57.671876 27.984375-3.792969 14.386719-9.105469 28.234375-15.796876 41.308594zm-87.027343 163.765625c98.214843-27.667969 165.179687-122.246094 157.460937-226.898437 5.085938 5.691406 9.851563 11.679687 14.257813 17.9375 23.335937 105.78125-39.167969 210.851562-140.652344 240.460937-11.734375-9.03125-22.195313-19.644531-31.066406-31.5zm154.160156-41.519531c6.441406 23.621094 8.574219 48.300781 6.128906 73.328125-5.363281 6.269531-11.105469 12.203125-17.203125 17.753906-1.589844-20.828125-6.132812-41.148437-13.566406-60.632813 9.101562-9.386718 17.347656-19.582031 24.640625-30.449218zm-36.464844 41.761718c6.804688 19.671876 10.492188 40.207032 10.992188 61.238282-1.488281 1.121094-2.996094 2.21875-4.523438 3.296875-28.191406-.796875-54.621093-8.960938-77.4375-22.613281 26.5625-9.398438 50.53125-23.78125 70.96875-41.921876zm87.957031-69.328124c-4.722656-28.460938-15.546874-53.929688-17.539062-56.570313 2.949219-16.59375 3.875-32.503906 3.183594-48.40625 14.367187 33.136719 19.265625 69.308594 14.355468 104.976563zm-102.878906-200.722657c-139.261718 20.105469-201.820312 193.410157-99.042968 297.402344 27.074218 27.398437 61.636718 44.808594 99.117187 50.316406-12.371094 6.582031-25.515625 11.878907-39.269531 15.71875-88.578125-19.207031-152.667969-98.628906-152.667969-189.558593 0-90.929688 64.089844-170.355469 152.667969-189.558594 13.726562 3.832031 26.847656 9.117187 39.195312 15.679687zm-214.238281 33.347657c-10.980469 5.089843-21.472656 11.003906-31.417969 17.726562 17.308594-21.613281 39.066406-39.511719 63.882813-52.28125-12.667969 10.984375-22.8125 22.066406-32.464844 34.554688zm-17.527344 26.539062c-5.375 9.5-10.054687 19.335938-14.011719 29.4375-11.46875 6.074219-22.347656 13.140625-32.539062 21.136719 2.199219-6.441407 4.730469-12.730469 7.5625-18.855469 11.785156-12.175781 24.832031-22.785156 38.988281-31.71875zm-55.144531 141.226562c9.203125 4.902344 18.757812 9.117188 28.566406 12.582032 1.914063 11.144531 4.636719 22.074218 8.144532 32.738281-10.675782-4.804687-20.9375-10.554687-30.664063-17.1875-2.640625-8.992187-4.640625-18.023437-6.046875-28.132813zm26.316406-4.234374c-9.667968-3.859376-19.039062-8.507813-27.992187-13.886719-.28125-6.1875-.261719-10.644531-.097657-15.628907 8.925782-5.933593 18.300782-11.160156 28.027344-15.601562-1.421875 14.953125-1.40625 30.03125.0625 45.117188zm2.238282-62.386719c-9.941407 4.03125-19.589844 8.808593-28.847657 14.277343.597657-4.660156 1.25-8.539062 2.007813-12.433593 9.878906-9.589844 20.648437-18.125 32.1875-25.492188-2.1875 7.757813-3.90625 15.246094-5.347656 23.648438zm-14.3125 117.390625c9.558593 5.324218 19.5 9.90625 29.742187 13.703125 4.511719 10.441406 9.8125 20.574219 15.894531 30.335937-11.503906-5.40625-22.496094-11.914062-32.859375-19.46875-4.8125-7.84375-9.082031-16.054687-12.777343-24.570312zm37.261718 56.617187c7.886719 3.804688 16.003906 7.121094 24.320313 9.9375 8.84375 11.070313 18.660156 21.289063 29.324219 30.535157-20.144532-10.363282-38.269532-24.109376-53.644532-40.472657zm107.734375 58.910157c-159.09375-80.429688-158.269531-307.015626.023438-387.066407 17.941406-3.296875 37.105469-4.175781 56.4375-2.136719-134.808594 50.679688-178.507813 218.5625-88.046875 328.410157 23.410156 28.421875 53.957031 50.117187 88.046875 62.933593-19.402344 2.050782-38.507813 1.152344-56.460938-2.140624zm0 0" fill="#dd4040"/></svg>